    <svg
      xmlns="http://www.w3.org/2000/svg"
      xmlnsLucid="lucid"
      xmlnsXlink="http://www.w3.org/1999/xlink"
      width="2120"
      height="1220"
    >
      <g transform="translate(-340 -160)" lucidPageTabId="FLjfGe8L.mQ_">
        <path
          fill="#fff"
          stroke="#3a414a"
          d="M440 780c0 22.1-17.9 40-40 40s-40-17.9-40-40 17.9-40 40-40 40 17.9 40 40zm160-54a6 6 0 016-6h268a6 6 0 016 6v108a6 6 0 01-6 6H606a6 6 0 01-6-6z"
        ></path>
        <use transform="translate(614.631 773.773)" xlinkHref="#a"></use>
        <use transform="translate(668.83 773.773)" xlinkHref="#b"></use>
        <use transform="translate(697.422 773.773)" xlinkHref="#c"></use>
        <use transform="translate(757.806 773.773)" xlinkHref="#d"></use>
        <use transform="translate(836.257 773.773)" xlinkHref="#e"></use>
        <use transform="translate(625.07 796.592)" xlinkHref="#f"></use>
        <use transform="translate(662.233 796.592)" xlinkHref="#g"></use>
        <use transform="translate(708.001 796.592)" xlinkHref="#h"></use>
        <use transform="translate(786.734 796.592)" xlinkHref="#i"></use>
        <use transform="translate(816.52 796.592)" xlinkHref="#j"></use>
        <path
          fill="#fff"
          stroke="#3a414a"
          d="M1520 186a6 6 0 016-6h268a6 6 0 016 6v108a6 6 0 01-6 6h-268a6 6 0 01-6-6z"
        ></path>
        <use transform="translate(1534.685 224.773)" xlinkHref="#k"></use>
        <use transform="translate(1613.331 224.773)" xlinkHref="#l"></use>
        <use transform="translate(1646.068 224.773)" xlinkHref="#i"></use>
        <use transform="translate(1675.853 224.773)" xlinkHref="#m"></use>
        <use transform="translate(1732.895 224.773)" xlinkHref="#n"></use>
        <use transform="translate(1537.74 247.592)" xlinkHref="#o"></use>
        <use transform="translate(1591.483 247.592)" xlinkHref="#p"></use>
        <use transform="translate(1625.131 247.592)" xlinkHref="#f"></use>
        <use transform="translate(1662.295 247.592)" xlinkHref="#g"></use>
        <use transform="translate(1708.063 247.592)" xlinkHref="#q"></use>
        <use transform="translate(1625.902 270.411)" xlinkHref="#i"></use>
        <use transform="translate(1655.687 270.411)" xlinkHref="#j"></use>
        <path
          fill="#3a414a"
          stroke="#3a414a"
          strokeWidth="0.05"
          d="M484.1 780.5H441v-1h43.1zm99.05 0h-27.2v-1h27.2z"
        ></path>
        <path fill="#3a414a" d="M441 780.5h-.53l.03-.5-.02-.5h.53z"></path>
        <path
          fill="#3a414a"
          stroke="#3a414a"
          strokeWidth="0.05"
          d="M441.04 780.52h-.6l.04-.5-.02-.54h.58zm-.53-1l.03.5-.03.46h.5v-.96z"
        ></path>
        <path fill="#3a414a" d="M597.92 780l-14.27 4.64v-9.28z"></path>
        <path
          fill="#3a414a"
          stroke="#3a414a"
          strokeWidth="0.05"
          d="M599.54 780l-16.4 5.32v-10.64zm-15.4 3.95L596.3 780l-12.15-3.95z"
        ></path>
        <use transform="translate(484.085 785.091)" xlinkHref="#r"></use>
        <use transform="translate(521.56 785.091)" xlinkHref="#s"></use>
        <path
          fill="#3a414a"
          stroke="#3a414a"
          strokeWidth="0.05"
          d="M1155.1 585.08l-24.4 36.85-18.1 25-15.24 19.25-13.5 15.64-12.3 13.13-11.48 11.24-10.84 9.76-10.37 8.58-10 7.6-9.72 6.76-9.53 6.05-9.38 5.42-9.3 4.86-9.26 4.36-9.28 3.9-9.34 3.46-9.43 3.07-9.6 2.68-9.77 2.3-10.03 1.9-10.33 1.54-10.7 1.12-11.1.7-11.12.23-.02-1 11.1-.24 11.07-.7 10.65-1.12 10.28-1.5 10-1.92 9.73-2.28 9.54-2.67 9.4-3.05 9.3-3.46 9.23-3.88 9.23-4.35 9.26-4.84 9.35-5.4 9.5-6.03 9.7-6.74 9.95-7.57 10.33-8.55 10.82-9.74 11.44-11.2 12.28-13.1 13.47-15.62 15.2-19.2 18.1-24.98 24.37-36.82 40.1-65.03h1.2zm348.1-344.04l-6.33.4-10.65 1.12-10.28 1.5-10 1.92-9.73 2.28-9.54 2.67-9.4 3.05-9.3 3.46-9.23 3.88-9.23 4.35-9.26 4.84-9.35 5.4-9.5 6.03-9.7 6.74-9.95 7.57-10.33 8.55-10.82 9.74-11.44 11.2-12.28 13.1-13.47 15.62-15.2 19.2-18.1 24.97-63.28 102.62h-1.18l63.64-103.18 18.13-25 15.24-19.25 13.5-15.64 12.3-13.13 11.48-11.24 10.84-9.76 10.37-8.58 10-7.6 9.72-6.76 9.53-6.05 9.38-5.42 9.3-4.86 9.26-4.36 9.28-3.9 9.34-3.46 9.43-3.07 9.6-2.68 9.77-2.3 10.03-1.9 10.33-1.54 10.7-1.12 6.33-.4z"
        ></path>
        <path fill="#3a414a" d="M881 780.5h-.54v-1h.52z"></path>
        <path
          fill="#3a414a"
          stroke="#3a414a"
          strokeWidth="0.05"
          d="M881.02 780.5l-.58.03v-1.05l.56-.02zm-.53-.98v.95h.47l-.02-.96z"
        ></path>
        <path fill="#3a414a" d="M1517.92 240.05l-14.1 5.1-.3-9.26z"></path>
        <path
          fill="#3a414a"
          stroke="#3a414a"
          strokeWidth="0.05"
          d="M1519.54 240l-16.2 5.86-.35-10.64zm-15.25 4.45l12-4.34-12.27-3.54z"
        ></path>
        <use transform="translate(1107.253 515.469)" xlinkHref="#t"></use>
        <use transform="translate(1126.472 515.469)" xlinkHref="#u"></use>
        <use transform="translate(1193.911 515.469)" xlinkHref="#v"></use>
        <use transform="translate(1207.809 515.469)" xlinkHref="#w"></use>
        <path
          fill="#fff"
          stroke="#3a414a"
          d="M1260 726a6 6 0 016-6h268a6 6 0 016 6v108a6 6 0 01-6 6h-268a6 6 0 01-6-6z"
        ></path>
        <use transform="translate(1286.784 785.773)" xlinkHref="#x"></use>
        <use transform="translate(1331.337 785.773)" xlinkHref="#p"></use>
        <use transform="translate(1364.985 785.773)" xlinkHref="#y"></use>
        <use transform="translate(1400.38 785.773)" xlinkHref="#z"></use>
        <use transform="translate(1421.213 785.773)" xlinkHref="#b"></use>
        <use transform="translate(1449.805 785.773)" xlinkHref="#A"></use>
        <path
          fill="#3a414a"
          stroke="#3a414a"
          strokeWidth="0.05"
          d="M1035.7 780.5H880.96v-1h154.72zm207.45 0h-28.17v-1h28.17z"
        ></path>
        <path fill="#3a414a" d="M880.98 780.5h-.52v-1h.52z"></path>
        <path
          fill="#3a414a"
          stroke="#3a414a"
          strokeWidth="0.05"
          d="M881 780.52h-.56v-1.04h.57zm-.5-1v.96h.46v-.96z"
        ></path>
        <path fill="#3a414a" d="M1257.92 780l-14.27 4.64v-9.28z"></path>
        <path
          fill="#3a414a"
          stroke="#3a414a"
          strokeWidth="0.05"
          d="M1259.54 780l-16.4 5.32v-10.64zm-15.4 3.95l12.16-3.95-12.15-3.95z"
        ></path>
        <use transform="translate(1035.69 785.091)" xlinkHref="#t"></use>
        <use transform="translate(1054.908 785.091)" xlinkHref="#B"></use>
        <use transform="translate(1114.943 785.091)" xlinkHref="#v"></use>
        <use transform="translate(1128.84 785.091)" xlinkHref="#w"></use>
        <path
          fill="#fff"
          stroke="#3a414a"
          strokeWidth="5"
          d="M2440 780c0 16.57-13.43 30-30 30s-30-13.43-30-30 13.43-30 30-30 30 13.43 30 30z"
        ></path>
        <path
          fill="#fff"
          stroke="#3a414a"
          d="M1520 1246a6 6 0 016-6h268a6 6 0 016 6v108a6 6 0 01-6 6h-268a6 6 0 01-6-6z"
        ></path>
        <use transform="translate(1535.857 1269.773)" xlinkHref="#k"></use>
        <use transform="translate(1614.503 1269.773)" xlinkHref="#C"></use>
        <use transform="translate(1629.336 1269.773)" xlinkHref="#D"></use>
        <use transform="translate(1650.972 1269.773)" xlinkHref="#m"></use>
        <use transform="translate(1708.014 1269.773)" xlinkHref="#E"></use>
        <use transform="translate(1764.97 1269.773)" xlinkHref="#F"></use>
        <use transform="translate(1561.253 1292.592)" xlinkHref="#G"></use>
        <use transform="translate(1601.824 1292.592)" xlinkHref="#b"></use>
        <use transform="translate(1630.416 1292.592)" xlinkHref="#H"></use>
        <use transform="translate(1729.634 1292.592)" xlinkHref="#e"></use>
        <use transform="translate(1534.674 1315.411)" xlinkHref="#I"></use>
        <use transform="translate(1601.656 1315.411)" xlinkHref="#J"></use>
        <use transform="translate(1647.467 1315.411)" xlinkHref="#K"></use>
        <use transform="translate(1749.93 1315.411)" xlinkHref="#L"></use>
        <use transform="translate(1596.751 1338.23)" xlinkHref="#i"></use>
        <use transform="translate(1626.536 1338.23)" xlinkHref="#b"></use>
        <use transform="translate(1655.128 1338.23)" xlinkHref="#M"></use>
        <path
          fill="#3a414a"
          stroke="#3a414a"
          strokeWidth="0.05"
          d="M1261.04 1134.42l19.82 27.34 16.1 20.36 14.06 16.3 12.73 13.57 11.8 11.54 11.1 10 10.6 8.78 10.2 7.76 9.92 6.9 9.72 6.16 9.56 5.53 9.48 4.96 9.46 4.45 9.47 3.98 9.54 3.55 9.67 3.15 9.8 2.74 10.04 2.34 10.3 1.97 10.63 1.57 11 1.16 7.17.45-.07 1-7.17-.45-11.06-1.16-10.66-1.58-10.34-1.98-10.07-2.36-9.85-2.75-9.7-3.14-9.58-3.57-9.5-4-9.5-4.47-9.53-5-9.6-5.53-9.75-6.2-9.96-6.92-10.24-7.78-10.63-8.8-11.15-10.03-11.82-11.58-12.75-13.6-14.08-16.34-16.14-20.4-19.85-27.38-54.57-86.13h1.2zm-368.5-354.67l11.5.72 11.06 1.16 10.66 1.58 10.34 1.98 10.07 2.36 9.85 2.75 9.7 3.14 9.58 3.57 9.5 4 9.5 4.47 9.53 5 9.6 5.53 9.75 6.2 9.96 6.92 10.24 7.78 10.63 8.8 11.15 10.03 11.82 11.58 12.75 13.6 14.08 16.34 16.14 20.4 19.84 27.37 30.1 45.54 25.37 40.05h-1.2l-25.02-39.5-30.07-45.52-19.82-27.34-16.1-20.36-14.06-16.3-12.73-13.57-11.8-11.54-11.1-10-10.6-8.78-10.2-7.76-9.92-6.9-9.72-6.16-9.56-5.53-9.48-4.96-9.46-4.45-9.47-3.98-9.54-3.55-9.67-3.15-9.8-2.74-10.04-2.34-10.3-1.97-10.63-1.57-11-1.16-11.48-.72-11.54-.24.02-1z"
        ></path>
        <path fill="#3a414a" d="M881 779.5l-.02 1h-.52v-1z"></path>
        <path
          fill="#3a414a"
          stroke="#3a414a"
          strokeWidth="0.05"
          d="M881.02 779.5l-.02 1.04-.56-.02v-1.05zm-.53.98h.45l.02-.94h-.48z"
        ></path>
        <path fill="#3a414a" d="M1517.92 1299.95l-14.4 4.18.3-9.27z"></path>
        <path
          fill="#3a414a"
          stroke="#3a414a"
          strokeWidth="0.05"
          d="M1519.54 1300l-16.55 4.8.33-10.64zm-15.5 3.45l12.26-3.55-12-4.34z"
        ></path>
        <use transform="translate(1118.457 1044.812)" xlinkHref="#N"></use>
        <use transform="translate(1130.532 1044.812)" xlinkHref="#O"></use>
        <use transform="translate(1182.39 1044.812)" xlinkHref="#v"></use>
        <use transform="translate(1196.287 1044.812)" xlinkHref="#w"></use>
        <path
          fill="#3a414a"
          stroke="#3a414a"
          strokeWidth="0.05"
          d="M1660.5 1223.15h-1v-403.4h1zm0-421.67h-1v-500.5h1z"
        ></path>
        <path fill="#3a414a" d="M1660.5 301h-1v-.54h1z"></path>
        <path
          fill="#3a414a"
          stroke="#3a414a"
          strokeWidth="0.05"
          d="M1660.53 301.02h-1.06v-.58h1.06zm-1-.53v.47h.94v-.48z"
        ></path>
        <path fill="#3a414a" d="M1660 1237.92l-4.64-14.27h9.28z"></path>
        <path
          fill="#3a414a"
          stroke="#3a414a"
          strokeWidth="0.05"
          d="M1660 1239.54l-5.32-16.4h10.64zm-3.95-15.4l3.95 12.16 3.95-12.15z"
        ></path>
        <use transform="translate(1578.016 815.702)" xlinkHref="#N"></use>
        <use transform="translate(1590.091 815.702)" xlinkHref="#O"></use>
        <use transform="translate(1641.949 815.702)" xlinkHref="#v"></use>
        <use transform="translate(1655.846 815.702)" xlinkHref="#w"></use>
        <path
          fill="#3a414a"
          stroke="#3a414a"
          strokeWidth="0.05"
          d="M1485.2 636.24l-1.85 3-1.77 3.14-1.7 3.3-1.6 3.54-1.56 3.8-1.5 4.15-1.43 4.58-1.38 5.1-1.3 5.82-1.2 6.7-1.08 7.88-.9 9.48-.33 6.44-1-.05.35-6.46.9-9.53 1.08-7.92 1.2-6.73 1.32-5.84 1.38-5.16 1.45-4.62 1.5-4.2 1.58-3.83 1.63-3.57 1.7-3.34 1.8-3.17 1.6-2.6h1.18zM1629.65 430l-1.1 17.9-1.43 13.64-1.63 11.17-1.8 9.5-1.96 8.3-2.05 7.4-2.17 6.7-2.27 6.1-2.36 5.65-2.48 5.26-2.58 4.95-2.7 4.67-2.8 4.43-2.95 4.24-3.1 4.07-3.25 3.93-3.42 3.8-3.63 3.7-3.85 3.62-3.1 2.7-10.3 8.34-12.04 8.9-47.94 32.65-4.75 3.85-2.77 2.43h-1.5l3.62-3.2 4.8-3.88 47.97-32.64 12-8.9 10.27-8.3 3.07-2.68 3.83-3.6 3.6-3.66 3.4-3.78 3.22-3.9 3.07-4.03 2.92-4.2 2.8-4.4 2.67-4.63 2.57-4.9 2.46-5.23 2.35-5.6 2.26-6.08 2.15-6.64 2.05-7.36 1.93-8.26 1.8-9.46 1.63-11.12 1.43-13.6 1.1-17.83-1.12-129.02h1z"
        ></path>
        <path fill="#3a414a" d="M1628.5 300.98h-1v-.5h1z"></path>
        <path
          fill="#3a414a"
          stroke="#3a414a"
          strokeWidth="0.05"
          d="M1628.53 301l-1.05.02v-.57h1.05zm-1-.5v.47h.95v-.47z"
        ></path>
        <path fill="#3a414a" d="M1471.73 703.77l-5.02 14.13-4.24-14.4z"></path>
        <path
          fill="#3a414a"
          stroke="#3a414a"
          strokeWidth="0.05"
          d="M1472.43 703.3l-5.76 16.22-4.88-16.52zm-5.68 12.98l4.28-12.03-7.9-.22z"
        ></path>
        <use transform="translate(1401.857 632.1)" xlinkHref="#t"></use>
        <use transform="translate(1421.076 632.1)" xlinkHref="#B"></use>
        <use transform="translate(1481.111 632.1)" xlinkHref="#v"></use>
        <use transform="translate(1495.009 632.1)" xlinkHref="#w"></use>
        <path
          fill="#fff"
          stroke="#3a414a"
          d="M1960 546a6 6 0 016-6h268a6 6 0 016 6v108a6 6 0 01-6 6h-268a6 6 0 01-6-6z"
        ></path>
        <use transform="translate(2051.156 605.773)" xlinkHref="#P"></use>
        <use transform="translate(2103.695 605.773)" xlinkHref="#Q"></use>
        <use transform="translate(2117.215 605.773)" xlinkHref="#R"></use>
        <path
          fill="none"
          stroke="#3a414a"
          strokeLinejoin="round"
          d="M1800.97 240l13.23.3 13.48.83 13.23 1.4 12.98 1.9 12.72 2.44 12.47 2.92 12.2 3.4 11.97 3.9 11.7 4.34 11.43 4.8 11.16 5.25 10.88 5.68 10.6 6.1 10.3 6.54 9.97 6.94 9.66 7.33 9.33 7.72 9 8.1 8.64 8.46 8.3 8.82 7.9 9.17 7.53 9.5 7.14 9.82 6.73 10.13 6.32 10.44 5.9 10.73 5.47 11.02 5.02 11.3 4.58 11.56 4.12 11.83 3.65 12.1 3.17 12.34 2.67 12.6 2.18 12.85 1.66 13.08 1.12 13.35.17 4.13"
        ></path>
        <path
          fill="#3a414a"
          stroke="#3a414a"
          strokeWidth="0.05"
          d="M1801 239.5l-.03 1h-.5v-1z"
        ></path>
        <path
          fill="#3a414a"
          stroke="#3a414a"
          d="M2099.95 537.92l-5.04-14.13 9.28-.27z"
        ></path>
        <path
          fill="#fff"
          stroke="#3a414a"
          d="M1960 906a6 6 0 016-6h268a6 6 0 016 6v108a6 6 0 01-6 6h-268a6 6 0 01-6-6z"
        ></path>
        <use transform="translate(2050.434 965.773)" xlinkHref="#P"></use>
        <use transform="translate(2102.973 965.773)" xlinkHref="#Q"></use>
        <use transform="translate(2116.493 965.773)" xlinkHref="#S"></use>
        <path
          fill="none"
          stroke="#3a414a"
          strokeLinejoin="round"
          d="M1800.97 1300l14-.3 14.27-.9 14.05-1.48 13.8-2.04 13.53-2.58 13.26-3.1 12.94-3.62 12.64-4.1 12.3-4.58 11.94-5.02 11.58-5.45 11.2-5.85 10.8-6.24 10.4-6.6 9.98-6.94 9.57-7.26 9.15-7.57 8.72-7.85 8.3-8.12 7.86-8.38 7.44-8.62 7-8.84 6.6-9.07 6.16-9.3 5.74-9.47 5.33-9.68 4.9-9.88 4.5-10.08 4.06-10.3 3.66-10.47 3.22-10.7 2.8-10.9 2.37-11.1 1.92-11.37 1.46-11.6 1-11.87.08-1.96"
        ></path>
        <path
          fill="#3a414a"
          stroke="#3a414a"
          strokeWidth="0.05"
          d="M1801 1300.5h-.54v-1h.5z"
        ></path>
        <path
          fill="#3a414a"
          stroke="#3a414a"
          d="M2099.95 1022.08l4.2 14.4-9.26-.28z"
        ></path>
        <path
          fill="none"
          stroke="#3a414a"
          strokeLinejoin="round"
          d="M2240.97 600l8.12.18 8.5.54 8.4.88 8.25 1.22 8.07 1.54 7.9 1.85 7.67 2.15 7.45 2.42 7.2 2.68 6.97 2.93 6.7 3.15 6.4 3.36 6.16 3.53 5.87 3.73 5.6 3.88 5.3 4.03 5.03 4.16 4.76 4.3 4.5 4.38 4.22 4.52 3.97 4.6 3.72 4.7 3.48 4.77 3.23 4.86 3 4.96 2.77 5.04 2.55 5.13 2.33 5.2 2.1 5.33 1.9 5.4 1.66 5.53 1.45 5.63 1.23 5.74 1 5.9.68 5.4"
        ></path>
        <path
          fill="#3a414a"
          stroke="#3a414a"
          strokeWidth="0.05"
          d="M2241 599.5l-.03 1h-.5v-1z"
        ></path>
        <path
          fill="#3a414a"
          stroke="#3a414a"
          d="M2409.9 748.38l-5.4-14 9.26-.5z"
        ></path>
        <path
          fill="none"
          stroke="#3a414a"
          strokeLinejoin="round"
          d="M2240.97 960l8.12-.18 8.5-.54 8.4-.88 8.25-1.22 8.07-1.54 7.9-1.85 7.67-2.15 7.45-2.42 7.2-2.68 6.97-2.93 6.7-3.15 6.4-3.36 6.16-3.53 5.87-3.73 5.6-3.88 5.3-4.03 5.03-4.16 4.76-4.3 4.5-4.38 4.22-4.52 3.97-4.6 3.72-4.7 3.48-4.77 3.23-4.86 3-4.96 2.77-5.04 2.55-5.13 2.33-5.2 2.1-5.33 1.9-5.4 1.66-5.53 1.45-5.63 1.23-5.74 1-5.9.68-5.4"
        ></path>
        <path
          fill="#3a414a"
          stroke="#3a414a"
          strokeWidth="0.05"
          d="M2241 960.5h-.54v-1h.5z"
        ></path>
        <path
          fill="#3a414a"
          stroke="#3a414a"
          d="M2409.9 811.62l3.86 14.5-9.25-.5z"
        ></path>
        <path
          fill="#3a414a"
          stroke="#3a414a"
          strokeWidth="0.05"
          d="M1463.8 444.68l-9.8 6.05-7.84 5.32-6.66 4.94-5.84 4.7-8.4 7.34-10.9 10.23-10.58 10.8-10.17 11.3-9.66 11.7-9.1 12-8.5 12.22-7.88 12.4-7.23 12.5-6.6 12.6-5.95 12.67-5.33 12.7-4.73 12.7-4.13 12.7-3.57 12.75-3 12.75-2.43 12.78-1.9 12.82-1.34 12.88-.82 12.96-.26 12.57-1-.02.26-12.58.82-13 1.36-12.92 1.9-12.86 2.44-12.84 3-12.8 3.57-12.76 4.15-12.76 4.74-12.75 5.35-12.74 5.97-12.7 6.6-12.63 7.27-12.56 7.9-12.44 8.52-12.26 9.14-12.03 9.7-11.72 10.2-11.32 10.6-10.84 10.92-10.26 8.43-7.35 5.9-4.75 6.68-4.96 7.88-5.35 9.83-6.08 6.28-3.53h2.04zm131.88-127.8l-.2 2.32-.8 5.7-.95 5.3-1.1 4.92-1.24 4.62-1.38 4.35-1.48 4.13-1.62 3.94-1.73 3.8-1.88 3.65-2 3.55-2.16 3.47-2.3 3.4-2.52 3.38-2.7 3.34-2.97 3.36-3.26 3.4-3.6 3.44-4.05 3.57-4.62 3.74-5.4 4-6.53 4.43-8.44 5.2-26.85 14.14h-2.14l28.5-15 8.4-5.18 6.5-4.4 5.36-3.98 4.6-3.7 4-3.55 3.6-3.43 3.2-3.36 2.95-3.32 2.68-3.32 2.48-3.33 2.3-3.37 2.13-3.44 1.98-3.5 1.85-3.63 1.7-3.75 1.6-3.9 1.48-4.1 1.35-4.32 1.23-4.58 1.1-4.88.93-5.24.77-5.67.22-2.3z"
        ></path>
        <path fill="#3a414a" d="M1311.18 719.06v.5h-1v-.53z"></path>
        <path
          fill="#3a414a"
          stroke="#3a414a"
          strokeWidth="0.05"
          d="M1311.2 719.03v.56h-1.06v-.6zm-1 .5h.94v-.45l-.94-.02z"
        ></path>
        <path fill="#3a414a" d="M1599.84 316.58l-9.26-.47 5.34-14z"></path>
        <path
          fill="#3a414a"
          stroke="#3a414a"
          strokeWidth="0.05"
          d="M1600.5 317.1l-10.63-.52 6.13-16.1zm-9.2-1.45l7.88.4-3.34-12.34z"
        ></path>
        <g>
          <use transform="translate(1394.135 436.255)" xlinkHref="#t"></use>
          <use transform="translate(1413.353 436.255)" xlinkHref="#u"></use>
          <use transform="translate(1480.793 436.255)" xlinkHref="#v"></use>
          <use transform="translate(1494.69 436.255)" xlinkHref="#w"></use>
        </g>
        <path
          fill="none"
          stroke="#3a414a"
          strokeLinejoin="round"
          d="M1400 840.97l.3 13.38.78 12.73 1.24 11.78 1.62 11 1.98 10.37 2.3 9.86 2.65 9.45 2.98 9.16 3.33 8.97 3.73 8.87 4.2 8.87 4.7 9.05 5.43 9.38 6.37 10.02 7.8 11.23 10.56 13.87 62.63 76 7.8 11.22 6.37 10.03 5.42 9.38 4.7 9.03 4.2 8.9 3.72 8.85 3.33 8.96 2.98 9.17 2.64 9.46 2.3 9.86 2 10.36 1.6 11 1.24 11.78.66 10.24"
        ></path>
        <path
          fill="#3a414a"
          stroke="#3a414a"
          strokeWidth="0.05"
          d="M1400.5 840.97l-1 .02v-.54h1z"
        ></path>
        <path
          fill="#3a414a"
          stroke="#3a414a"
          d="M1571.95 1237.94l-5-14.13 9.25-.24z"
        ></path>
        <defs>
          <path
            id="T"
            fill="#3a414a"
            d="M49-1294c0-47 215-71 282-71 169 0 309 23 420 68 157 64 235 168 235 311 0 147-125 269-375 368 50 86 179 292 254 403 55 81 79 133 79 154 1 31-33 61-65 59-82-7-187-236-237-321-33-56-84-139-149-252-90 27-174 41-251 41v421c0 75-21 113-63 113-36 0-54-18-54-53 2-462 6-601 5-1174l-22 7c-39-27-59-52-59-74zm813 302c0-94-68-163-205-208-117-39-263-58-411-42-3 92-4 284-4 576 111-1 234-30 371-87 166-69 249-148 249-239"
          ></path>
          <path
            id="U"
            fill="#3a414a"
            d="M703-239c53-2 92 61 48 102C706-69 548 0 435 0 231 0 43-192 43-396c0-275 343-584 568-334 55 61 113 143 113 244 0 28-21 44-58 59-58 23-357 32-492 21-5 142 119 273 261 273 43 0 96-18 159-53s99-53 109-53zM585-539c-52-159-182-200-297-92-35 33-63 72-85 117 67-1 195-9 382-25"
          ></path>
          <path
            id="V"
            fill="#3a414a"
            d="M691-782c3 123-209 645-264 739-33 56-84 55-119 2-36-56-66-159-95-232C154-421 67-614 26-765c39-41 78-79 100-29 86 194 136 321 244 584 40-103 96-259 166-469 10-29 33-157 92-157 42 0 63 18 63 54"
          ></path>
          <path
            id="W"
            fill="#3a414a"
            d="M113-1111c40 0 80 33 80 73 0 37-29 75-67 75-37 0-77-38-77-75 0-49 21-73 64-73zm68 365c0 46 2 107-5 186-18 209 2 366-28 543C100 6 44 17 44-55c0-200 11-280 9-527 0-75 5-130 15-166s29-54 60-54c35 0 53 19 53 56"
          ></path>
          <path
            id="X"
            fill="#3a414a"
            d="M986-780c18-8-209 770-215 737-29 44-90 48-105-6-48-170-45-206-137-531-57 192-82 345-154 537-21 56-93 59-122 4-51-64-183-617-195-741 26-23 50-34 73-34 59 0 98 283 122 375 8 32 28 102 61 209 36-117 91-388 159-565 21-54 74-52 107-7 17 22 66 197 145 526 36-111 95-347 149-519 9-28 31-40 53-40 39 0 59 18 59 55"
          ></path>
          <g id="a">
            <use transform="scale(.01085)" xlinkHref="#T"></use>
            <use
              transform="translate(11.209) scale(.01085)"
              xlinkHref="#U"
            ></use>
            <use
              transform="translate(19.238) scale(.01085)"
              xlinkHref="#V"
            ></use>
            <use
              transform="translate(27.094) scale(.01085)"
              xlinkHref="#W"
            ></use>
            <use
              transform="translate(29.579) scale(.01085)"
              xlinkHref="#U"
            ></use>
            <use
              transform="translate(38.336) scale(.01085)"
              xlinkHref="#X"
            ></use>
          </g>
          <path
            id="Y"
            fill="#3a414a"
            d="M236-31c2-220 3-265 3-679-68 0-161 0-207-9-20-44-43-82 2-103 17-8 86-11 205-11v-396c0-36 19-54 56-54 39 0 58 18 58 54v394c77-2 141-3 191-3 40 0 60 19 60 56 0 33-20 54-60 63-20 5-83 7-189 7v681c-41 21-72 31-94 31-17 0-25-10-25-31"
          ></path>
          <path
            id="Z"
            fill="#3a414a"
            d="M492-838c232 0 291 198 291 469 0 141-10 244-30 309-13 40-35 60-67 60-40 0-60-20-60-60 0-71 28-306 28-377 0-184-58-276-173-276-139 0-241 167-271 298 0 171-4 299-12 386C134 13 83 23 85-96c5-344 15-665 2-1007-5-137-26-214-26-233s19-29 57-29c32 0 56 19 65 58 18 75 6 286 10 394 4 111 11 188 12 229 76-103 172-154 287-154"
          ></path>
          <g id="b">
            <use transform="scale(.01085)" xlinkHref="#Y"></use>
            <use transform="translate(6.63) scale(.01085)" xlinkHref="#Z"></use>
            <use transform="translate(15.3) scale(.01085)" xlinkHref="#U"></use>
          </g>
          <path
            id="aa"
            fill="#3a414a"
            d="M355-812c205 0 375 221 375 428C730-184 587 0 393 0c-62 0-124-18-185-53 3 108 5 268-12 360-62 71-119 36-111-97C99-17 57-524 60-761c0-39 19-58 58-58 42 0 64 20 65 61 47-36 104-54 172-54zm38 684c118 0 209-133 209-256 0-147-109-307-250-307-73 0-126 33-157 99 4 97 6 225 6 384 67 53 131 80 192 80"
          ></path>
          <path
            id="ab"
            fill="#3a414a"
            d="M430-814c173 0 269 166 265 351 0 40-19 60-58 60-81-1-73-142-96-213-16-51-53-75-104-75-114 0-258 142-258 256v406C126-2 69 33 68-58c-2-166-3-209-3-599 1-76 2-155 65-159 53-3 64 61 56 125 75-82 157-123 244-123"
          ></path>
          <path
            id="ac"
            fill="#3a414a"
            d="M387-828c200 0 320 195 320 405C707-201 583 0 372 0 173 0 46-173 46-377c0-226 130-451 341-451zm-8 703c130 0 203-155 203-298 0-128-75-280-196-280-146 0-219 104-219 312 0 177 71 266 212 266"
          ></path>
          <path
            id="ad"
            fill="#3a414a"
            d="M403-816c216 0 380 206 380 423C783-187 611 0 404 0c-85 0-161-30-227-89l-3 40C113-5 63 4 63-113c0-212 11-919 10-1131 0-81 22-121 67-121 43 0 65 40 65 119v498c49-45 115-68 198-68zm7 685c159-24 244-117 244-268 0-149-108-292-251-292-82 0-154 33-217 99v298c-2 4 0 10 7 19 60 87 98 137 217 144"
          ></path>
          <path
            id="ae"
            fill="#3a414a"
            d="M176-1229c0 331 45 883 5 1198C117 12 64 26 68-94c9-254-17-925-15-1193 0-52 19-78 58-78 43 0 65 45 65 136"
          ></path>
          <path
            id="af"
            fill="#3a414a"
            d="M471-126c0-57 15-247 15-304 0-182-46-273-138-273-69 0-123 41-162 124-1 111-2 267-2 468 0 74-21 111-63 111-39 0-58-27-58-80-2-270 3-399 4-702 33-19 61-29 85-29 21 0 31 18 29 53 113-106 314-82 379 55 57-77 128-116 213-116 175 0 263 134 263 403 0 66-17 290-15 356 0 40-20 60-60 60-43 0-65-40-65-121 0-58 14-248 14-306 0-181-46-271-139-271-76 0-132 46-169 138 29 134-7 349-6 495 0 40-20 60-60 60-43 0-65-40-65-121"
          ></path>
          <g id="c">
            <use transform="scale(.01085)" xlinkHref="#aa"></use>
            <use
              transform="translate(8.095) scale(.01085)"
              xlinkHref="#ab"
            ></use>
            <use
              transform="translate(15.723) scale(.01085)"
              xlinkHref="#ac"
            ></use>
            <use
              transform="translate(23.904) scale(.01085)"
              xlinkHref="#ad"
            ></use>
            <use
              transform="translate(32.52) scale(.01085)"
              xlinkHref="#ae"
            ></use>
            <use transform="translate(35.2) scale(.01085)" xlinkHref="#U"></use>
            <use
              transform="translate(43.956) scale(.01085)"
              xlinkHref="#af"
            ></use>
          </g>
          <path
            id="ag"
            fill="#3a414a"
            d="M492-649c-25 0-121-48-151-42-78 0-126 20-145 61 27 40 84 80 168 121 101 49 166 86 196 110 63 51 94 116 94 196C654-80 511 0 379 0 238 0 124-54 39-162c11-57 28-85 51-85-7 0 24 21 94 65s133 66 190 66c85 0 138-26 157-79-3-57-43-111-123-158-72-42-147-78-220-120-80-46-118-101-118-158 0-110 147-190 263-190 70 0 222 45 222 106 0 33-31 66-63 66"
          ></path>
          <path
            id="ah"
            fill="#3a414a"
            d="M765-686c0 180-28 458 0 619-59 63-107 90-115-35C564-34 472 0 374 0 170 0 43-179 43-393c0-271 311-530 595-387 8-33 28-49 60-49 45 0 67 48 67 143zM177-382c0 126 71 247 192 247 93 0 182-43 266-130-3-104 5-290 7-365-30-3-125-56-176-56-152 0-289 154-289 304"
          ></path>
          <path
            id="ai"
            fill="#3a414a"
            d="M548-125c0-58 15-243 15-302 0-184-58-276-174-276-89 0-157 44-205 131v456c0 77-21 116-63 116-39 0-58-27-58-80-2-270 3-399 4-702 58-32 117-59 114 38 61-53 132-80 213-80 198 0 297 134 297 401 0 67-21 291-19 358 1 33-26 63-59 63-43 0-65-41-65-123"
          ></path>
          <g id="d">
            <use transform="scale(.01085)" xlinkHref="#ag"></use>
            <use transform="translate(7.52) scale(.01085)" xlinkHref="#Y"></use>
            <use
              transform="translate(14.15) scale(.01085)"
              xlinkHref="#ah"
            ></use>
            <use
              transform="translate(23.134) scale(.01085)"
              xlinkHref="#Y"
            ></use>
            <use
              transform="translate(29.763) scale(.01085)"
              xlinkHref="#U"
            ></use>
            <use
              transform="translate(38.52) scale(.01085)"
              xlinkHref="#af"
            ></use>
            <use
              transform="translate(50.412) scale(.01085)"
              xlinkHref="#U"
            ></use>
            <use
              transform="translate(59.169) scale(.01085)"
              xlinkHref="#ai"
            ></use>
            <use
              transform="translate(67.285) scale(.01085)"
              xlinkHref="#Y"
            ></use>
          </g>
          <g id="e">
            <use transform="scale(.01085)" xlinkHref="#X"></use>
            <use
              transform="translate(11.328) scale(.01085)"
              xlinkHref="#W"
            ></use>
            <use
              transform="translate(13.813) scale(.01085)"
              xlinkHref="#Y"
            ></use>
            <use
              transform="translate(20.443) scale(.01085)"
              xlinkHref="#Z"
            ></use>
          </g>
          <path
            id="aj"
            fill="#3a414a"
            d="M782-761C654-423 407 79 236 345c-58 1-101-10-98-36 0-3 64-126 193-369-48-118-120-295-222-529-16-38-40-95-65-172 25-37 49-56 72-56 8 0 15 4 22 13 15 21 39 78 79 169 42 96 106 239 189 430 117-227 161-366 263-585 27-58 114-20 113 29"
          ></path>
          <path
            id="ak"
            fill="#3a414a"
            d="M729-724c-6 220-2 446 1 668 0 37-19 56-56 56-61 0-64-48-63-131C548-44 469 0 374 0 160 0 53-199 53-596c0-94 7-156 19-186s32-44 59-44c46 0 69 21 69 63 0 43-12 196-12 239 0 176 46 398 187 398 124 0 223-155 231-280 4-61-4-317 17-381 59-31 109-44 106 63"
          ></path>
          <g id="f">
            <use transform="scale(.01085)" xlinkHref="#aj"></use>
            <use
              transform="translate(8.192) scale(.01085)"
              xlinkHref="#ac"
            ></use>
            <use
              transform="translate(16.374) scale(.01085)"
              xlinkHref="#ak"
            ></use>
            <use transform="translate(25) scale(.01085)" xlinkHref="#ab"></use>
          </g>
          <path
            id="al"
            fill="#3a414a"
            d="M370-1365c349 0 611 335 611 693C981-313 691 0 335 0 242 0 44-36 49-109c4-60 73-80 128-48-2-119-3-467-3-1044-34 12-84 10-78-33 49-107 110-131 274-131zM282-137c427 45 695-414 512-814-87-190-242-309-516-293 3 245 4 614 4 1107"
          ></path>
          <path
            id="am"
            fill="#3a414a"
            d="M171-567c0 248 122 446 356 446 138 0 226-58 265-174 35-12 111-21 102 27C861-98 723 0 526 0 214 0 43-251 43-579c0-181 44-349 131-506 103-187 238-280 405-280 109 0 273 126 273 232 0 44-21 66-64 66-42 11-105-129-112-126-26-29-60-44-101-44-126 0-228 84-307 251-65 137-97 277-97 419"
          ></path>
          <path
            id="an"
            fill="#3a414a"
            d="M79-1355c67 0 222-10 293-10 37 0 55 16 55 49s-21 55-63 65c-14 3-48 6-103 9 14 285 12 690 14 1123 53 1 86 2 99 5 35 9 53 29 53 61 0 35-88 53-263 53-29 0-53-1-74-3-46-72-52-116 79-113-9-188-5-826-17-1123-34-1-68-5-101-12-19-43-36-104 28-104"
          ></path>
          <path
            id="ao"
            fill="#3a414a"
            d="M521 0C214 0 48-269 48-592c0-181 36-346 107-493 90-187 215-280 376-280 155 0 276 83 363 249 71 134 106 286 106 457C1000-328 829 0 521 0zm25-123c210 0 329-301 324-532-6-281-93-552-326-586-283 24-374 316-378 639-4 282 116 479 380 479"
          ></path>
          <path
            id="ap"
            fill="#3a414a"
            d="M386-118c0 58-93 207-132 226-57-16-85-35-85-57 19-38 77-140 90-181 9-28 33-53 60-53 45 0 67 22 67 65"
          ></path>
          <g id="g">
            <use transform="scale(.01085)" xlinkHref="#al"></use>
            <use
              transform="translate(11.09) scale(.01085)"
              xlinkHref="#am"
            ></use>
            <use
              transform="translate(21.278) scale(.01085)"
              xlinkHref="#an"
            ></use>
            <use
              transform="translate(26.28) scale(.01085)"
              xlinkHref="#ao"
            ></use>
            <use
              transform="translate(35.156) scale(.01085)"
              xlinkHref="#ap"
            ></use>
          </g>
          <path
            id="aq"
            fill="#3a414a"
            d="M756-439c-104-7-387 36-490 33-33 87-80 219-141 394C95 1 27 13 24-26c24-155 316-923 404-1175 11-31 37-139 81-159 8-3 24-5 49-5 16 0 29 8 39 25 55 83 91 240 125 355 35 118 243 835 244 924 1 32-31 62-63 61-23 0-43-13-51-41-37-129-36-182-96-398zm-32-124c-55-196-117-397-186-603-56 161-131 371-226 630 62-1 333-30 412-27"
          ></path>
          <path
            id="ar"
            fill="#3a414a"
            d="M655-283c43-1 84 52 57 97C658-97 502 0 367 0 182 0 38-170 41-358c3-197 135-364 282-427 102-44 198-51 276 19 40 35 64 78 73 128-25 37-48 56-70 56-7 0-24-18-50-54s-53-55-84-55c-126 0-292 183-292 309 0 138 62 248 191 247 49 0 107-25 174-74s105-74 114-74"
          ></path>
          <g id="h">
            <use transform="scale(.01085)" xlinkHref="#aq"></use>
            <use
              transform="translate(10.85) scale(.01085)"
              xlinkHref="#ab"
            ></use>
            <use
              transform="translate(18.479) scale(.01085)"
              xlinkHref="#ar"
            ></use>
            <use
              transform="translate(26.714) scale(.01085)"
              xlinkHref="#Z"
            ></use>
            <use
              transform="translate(35.384) scale(.01085)"
              xlinkHref="#W"
            ></use>
            <use
              transform="translate(37.869) scale(.01085)"
              xlinkHref="#Y"
            ></use>
            <use
              transform="translate(44.499) scale(.01085)"
              xlinkHref="#U"
            ></use>
            <use
              transform="translate(53.255) scale(.01085)"
              xlinkHref="#ar"
            ></use>
            <use
              transform="translate(61.49) scale(.01085)"
              xlinkHref="#Y"
            ></use>
            <use
              transform="translate(68.12) scale(.01085)"
              xlinkHref="#ap"
            ></use>
          </g>
          <path
            id="as"
            fill="#3a414a"
            d="M550-771c3-179-11-365-11-538 0-37 18-56 55-56 31 0 50 19 61 56 5 19 9 61 9 125 0 342-2 839 27 1138-46 38-120 64-109-31C515-26 442 0 364 0 165 0 10-191 10-393c0-268 278-548 540-378zM142-399c0 139 88 273 223 273 82 0 149-30 202-91-8-94-12-225-12-392-55-55-112-82-173-82-128 0-240 161-240 292"
          ></path>
          <g id="i">
            <use transform="scale(.01085)" xlinkHref="#ah"></use>
            <use
              transform="translate(8.984) scale(.01085)"
              xlinkHref="#ai"
            ></use>
            <use
              transform="translate(17.1) scale(.01085)"
              xlinkHref="#as"
            ></use>
          </g>
          <path
            id="at"
            fill="#3a414a"
            d="M802-696c140 50 287 161 289 324 4 389-648 445-983 299-10-37-2-105 27-98 23 0 62 9 118 28 5-228 18-440 6-674-10-192-29-332-29-422-41 2-81 5-121 8-42-18-63-38-63-61 0-49 58-73 174-73 191 0 355 27 492 80 191 74 286 191 286 350 0 109-65 189-196 239zM365-126c255 31 592-28 596-243 2-136-240-241-389-257-35-4-87-8-152-26-32-9-46-31-46-56-1-33 24-67 58-67 17 0 75 5 92 5 137 0 348-61 348-179 0-185-302-292-524-283 1 67 2 211 2 432 0 281 38 446 15 674"
          ></path>
          <path
            id="au"
            fill="#3a414a"
            d="M423-1244c-130-3-288 151-189 283 45 59 120 123 235 184 144 76 234 127 267 154 84 69 126 156 126 261C862-158 697 3 493 0 263-4 80-145 39-341c-7-33 36-64 69-62 47 3 61 61 85 108 42 83 178 162 300 162 142 0 239-94 237-236 0-39-12-75-36-109s-86-77-185-130c-128-68-220-125-277-172-105-85-157-174-157-266 0-167 173-319 338-319 164 0 322 115 355 251-26 31-50 47-73 47-8 0-24-15-45-46-53-79-112-128-227-131"
          ></path>
          <g id="j">
            <use transform="scale(.01085)" xlinkHref="#at"></use>
            <use
              transform="translate(12.283) scale(.01085)"
              xlinkHref="#an"
            ></use>
            <use
              transform="translate(17.285) scale(.01085)"
              xlinkHref="#au"
            ></use>
            <use
              transform="translate(27.04) scale(.01085)"
              xlinkHref="#ao"
            ></use>
          </g>
          <g id="k">
            <use transform="scale(.01085)" xlinkHref="#al"></use>
            <use
              transform="translate(11.09) scale(.01085)"
              xlinkHref="#U"
            ></use>
            <use
              transform="translate(19.846) scale(.01085)"
              xlinkHref="#Y"
            ></use>
            <use
              transform="translate(26.476) scale(.01085)"
              xlinkHref="#U"
            ></use>
            <use
              transform="translate(35.232) scale(.01085)"
              xlinkHref="#ab"
            ></use>
            <use
              transform="translate(42.86) scale(.01085)"
              xlinkHref="#af"
            ></use>
            <use
              transform="translate(54.753) scale(.01085)"
              xlinkHref="#W"
            ></use>
            <use
              transform="translate(57.237) scale(.01085)"
              xlinkHref="#ai"
            ></use>
            <use
              transform="translate(65.354) scale(.01085)"
              xlinkHref="#U"
            ></use>
          </g>
          <g id="l">
            <use transform="scale(.01085)" xlinkHref="#ai"></use>
            <use
              transform="translate(8.116) scale(.01085)"
              xlinkHref="#U"
            ></use>
            <use
              transform="translate(16.873) scale(.01085)"
              xlinkHref="#X"
            ></use>
          </g>
          <path
            id="av"
            fill="#3a414a"
            d="M582-797c38-49 118-25 118 31 0 19-85 144-255 375 88 125 135 184 227 292 35 40 4 98-42 99-37 0-122-97-256-292C294-185 226-94 169-20 120-1 51 0 55-65c0-13 6-30 20-49 48-66 122-163 220-294-75-108-155-215-240-321 11-55 29-83 53-83 31 0 117 102 259 307 48-61 142-197 215-292"
          ></path>
          <path
            id="aw"
            fill="#3a414a"
            d="M710-642c0 71 20 306 20 377 0 437-110 656-329 656-122 0-255-100-297-188-23-49 13-95 60-94 16 0 47 24 92 73s93 74 142 74c105 0 169-103 193-309C529-18 467 0 406 0 207 0 39-215 39-418c0-274 287-511 543-350 49-28 105-58 121 9 5 21 7 60 7 117zM416-131c68-2 132-51 185-77 0-56-8-192-24-408-48-53-103-79-166-79-134 0-242 139-242 272 0 140 113 296 247 292"
          ></path>
          <g id="m">
            <use transform="scale(.01085)" xlinkHref="#U"></use>
            <use
              transform="translate(8.518) scale(.01085)"
              xlinkHref="#av"
            ></use>
            <use
              transform="translate(16.753) scale(.01085)"
              xlinkHref="#W"
            ></use>
            <use
              transform="translate(19.238) scale(.01085)"
              xlinkHref="#ag"
            ></use>
            <use
              transform="translate(26.758) scale(.01085)"
              xlinkHref="#Y"
            ></use>
            <use
              transform="translate(33.388) scale(.01085)"
              xlinkHref="#W"
            ></use>
            <use
              transform="translate(35.872) scale(.01085)"
              xlinkHref="#ai"
            ></use>
            <use
              transform="translate(43.989) scale(.01085)"
              xlinkHref="#aw"
            ></use>
          </g>
          <g id="n">
            <use transform="scale(.01085)" xlinkHref="#ag"></use>
            <use
              transform="translate(7.52) scale(.01085)"
              xlinkHref="#ac"
            ></use>
            <use
              transform="translate(15.701) scale(.01085)"
              xlinkHref="#ae"
            ></use>
            <use
              transform="translate(18.381) scale(.01085)"
              xlinkHref="#ak"
            ></use>
            <use
              transform="translate(27.007) scale(.01085)"
              xlinkHref="#Y"
            ></use>
            <use
              transform="translate(33.637) scale(.01085)"
              xlinkHref="#W"
            ></use>
            <use
              transform="translate(36.122) scale(.01085)"
              xlinkHref="#ac"
            ></use>
            <use
              transform="translate(44.303) scale(.01085)"
              xlinkHref="#ai"
            ></use>
          </g>
          <g id="o">
            <use transform="scale(.01085)" xlinkHref="#ac"></use>
            <use
              transform="translate(8.181) scale(.01085)"
              xlinkHref="#aa"
            ></use>
            <use
              transform="translate(16.276) scale(.01085)"
              xlinkHref="#Y"
            ></use>
            <use
              transform="translate(22.906) scale(.01085)"
              xlinkHref="#W"
            ></use>
            <use
              transform="translate(25.39) scale(.01085)"
              xlinkHref="#ac"
            ></use>
            <use
              transform="translate(33.572) scale(.01085)"
              xlinkHref="#ai"
            ></use>
            <use
              transform="translate(41.688) scale(.01085)"
              xlinkHref="#ag"
            ></use>
          </g>
          <g id="p">
            <use transform="scale(.01085)" xlinkHref="#X"></use>
            <use
              transform="translate(11.328) scale(.01085)"
              xlinkHref="#W"
            ></use>
            <use
              transform="translate(13.813) scale(.01085)"
              xlinkHref="#Y"
            ></use>
            <use
              transform="translate(20.443) scale(.01085)"
              xlinkHref="#Z"
            ></use>
          </g>
          <g id="q">
            <use transform="scale(.01085)" xlinkHref="#aq"></use>
            <use
              transform="translate(10.85) scale(.01085)"
              xlinkHref="#ab"
            ></use>
            <use
              transform="translate(18.479) scale(.01085)"
              xlinkHref="#ar"
            ></use>
            <use
              transform="translate(26.714) scale(.01085)"
              xlinkHref="#Z"
            ></use>
            <use
              transform="translate(35.384) scale(.01085)"
              xlinkHref="#W"
            ></use>
            <use
              transform="translate(37.869) scale(.01085)"
              xlinkHref="#Y"
            ></use>
            <use
              transform="translate(44.499) scale(.01085)"
              xlinkHref="#U"
            ></use>
            <use
              transform="translate(53.255) scale(.01085)"
              xlinkHref="#ar"
            ></use>
            <use
              transform="translate(61.49) scale(.01085)"
              xlinkHref="#Y"
            ></use>
            <use
              transform="translate(68.12) scale(.01085)"
              xlinkHref="#ap"
            ></use>
          </g>
          <path
            id="ax"
            fill="#333"
            d="M531-614c-33 0-117-43-150-43-49 0-84 9-103 26 45 67 311 167 362 220 54 56 87 121 87 208C727-59 571 34 418 34 267 34 142-29 43-154c7-41 48-130 87-128 2 0 37 22 104 66s127 66 179 66c66 0 107-17 123-50-5-45-48-90-128-136-72-41-147-78-217-121-80-49-116-111-116-174 0-130 162-224 297-224 79 0 256 66 256 140 0 50-47 101-97 101"
          ></path>
          <path
            id="ay"
            fill="#333"
            d="M584-872c50 0 94 39 94 90 0 53-31 85-94 98-29 6-81 10-156 10v662c-58 31-101 46-128 46-39 0-59-22-59-65 2-210 3-252 3-645-82 0-147-4-195-12-65-109-48-182 122-181 13-1 61 4 73 4v-364c-1-48 42-89 91-89 47 0 92 41 92 89v359c43-1 96-2 157-2"
          ></path>
          <path
            id="az"
            fill="#333"
            d="M836-686c0 187-30 463 2 630-71 75-129 122-171 10-82 53-167 80-256 80C187 34 46-160 46-393c0-281 308-555 614-431 19-27 45-40 76-40 67 0 100 59 100 178zM249-382c0 105 58 213 157 213 80 0 157-36 232-109 3-73 4-181 4-326 1 1-110-58-139-48-132-6-254 139-254 270"
          ></path>
          <path
            id="aA"
            fill="#333"
            d="M468-848c193 0 298 180 298 385 0 53-38 94-92 94-48 0-81-25-95-75-20-75-16-213-105-213-95 0-223 127-223 222v425c-45 29-84 44-116 44-42 0-63-31-63-92 0-166-4-210-4-604 0-125 33-188 99-188 53 0 83 27 91 82 68-53 138-80 210-80"
          ></path>
          <g id="r">
            <use transform="scale(.00868)" xlinkHref="#ax"></use>
            <use
              transform="translate(6.684) scale(.00868)"
              xlinkHref="#ay"
            ></use>
            <use
              transform="translate(12.665) scale(.00868)"
              xlinkHref="#az"
            ></use>
            <use
              transform="translate(20.52) scale(.00868)"
              xlinkHref="#aA"
            ></use>
            <use
              transform="translate(27.274) scale(.00868)"
              xlinkHref="#ay"
            ></use>
          </g>
          <path
            id="aB"
            fill="#333"
            d="M259-695c-54 0-93-47-92-100 0-43 23-74 69-92 61-24 202-36 423-36 59 0 89 33 89 99 0 42-22 73-67 92-57 25-197 37-422 37zm529 128c0 43-23 72-69 87-62 21-196 31-402 31-79 0-119-32-119-97 0-55 30-89 90-104 65-16 188-24 367-24 89 0 133 36 133 107"
          ></path>
          <path
            id="aC"
            fill="#333"
            d="M954-869c48 0 96 41 94 89 17 3-210 786-222 758-47 68-145 62-169-24-34-121-50-238-101-408-19 75-49 187-88 336C441-17 397 34 338 34c-35 0-62-19-87-54C195-99 65-647 49-794c132-103 169-61 221 139 17 65 35 167 68 300l99-369c26-97 65-145 116-145 31 0 57 15 80 45s64 167 123 414c24-74 73-259 101-370 16-61 54-89 97-89"
          ></path>
          <path
            id="aD"
            fill="#333"
            d="M166-1145c59 0 114 47 114 107 0 55-45 110-101 110S68-983 68-1038c0-54 42-107 98-107zm102 399c0 47 1 108-5 186-18 245-2 393-31 567C152 48 64 53 63-55c-3-213 9-280 9-561 0-147 36-220 109-220 58 0 87 30 87 90"
          ></path>
          <path
            id="aE"
            fill="#333"
            d="M529-872c255 0 326 211 326 503 0 146-10 253-32 320-18 56-52 83-99 83-53 0-95-41-94-94 4-187 101-621-111-619-95 0-163 74-220 216-24 59-14 117-17 192-3 89-6 176-14 261-41 29-77 44-108 44-45 0-71-81-71-130 2-345 13-664 1-1005-5-133-25-201-25-206-1-52 39-92 90-92 54 0 94 31 103 97 19 137 4 374 7 532 83-68 171-102 264-102"
          ></path>
          <g id="s">
            <use transform="scale(.00868)" xlinkHref="#aB"></use>
            <use
              transform="translate(8.299) scale(.00868)"
              xlinkHref="#aC"
            ></use>
            <use
              transform="translate(17.813) scale(.00868)"
              xlinkHref="#aD"
            ></use>
            <use
              transform="translate(20.807) scale(.00868)"
              xlinkHref="#ay"
            ></use>
            <use
              transform="translate(26.788) scale(.00868)"
              xlinkHref="#aE"
            ></use>
          </g>
          <path
            id="aF"
            fill="#333"
            d="M432-858c231 0 331 186 331 435 0 67-21 291-19 358 2 50-44 98-94 97-161-3-83-317-83-459 0-161-47-242-140-242-73 0-130 35-171 106v447c0 100-32 150-97 150C98 34 67-4 67-80c-2-279 3-404 3-720 48-30 87-45 116-45 27 0 46 14 56 41 59-36 123-54 190-54"
          ></path>
          <g id="t">
            <use transform="scale(.00868)" xlinkHref="#az"></use>
            <use
              transform="translate(7.856) scale(.00868)"
              xlinkHref="#aF"
            ></use>
          </g>
          <path
            id="aG"
            fill="#333"
            d="M741-273c50-2 102 44 100 94 0 19-8 40-25 63C764-40 600 34 473 34 251 34 46-175 46-396c0-217 200-459 413-459 160 0 336 211 336 369 0 44-28 73-82 92-62 22-312 32-464 24 15 104 106 205 224 203 39 0 88-18 149-53s100-53 119-53zM572-570c-76-133-187-104-270 20 39-1 129-7 270-20"
          ></path>
          <path
            id="aH"
            fill="#333"
            d="M671-870c56 0 110 48 95 114-60 267-147 511-266 730-21 40-51 60-89 60-55 0-100-60-145-176-55-140-136-349-235-631 42-51 79-77 112-77 23 0 45 12 57 41 49 113 132 319 211 504 69-187 119-334 150-443 24-81 61-122 110-122"
          ></path>
          <path
            id="aI"
            fill="#333"
            d="M253-1232c0 339 47 894 1 1220C165 56 70 64 75-94c7-254-17-925-15-1193 0-75 31-112 92-112 67 0 101 56 101 167"
          ></path>
          <path
            id="aJ"
            fill="#333"
            d="M800-724c-3 222-2 446 2 668 1 51-39 90-90 90-53 0-84-27-94-82-63 55-132 82-207 82C174 34 56-189 56-635c0-150 38-225 113-225 56 0 102 41 102 97 0 43-12 196-12 239 0 243 51 364 154 364 106 0 187-142 196-250 5-64-2-333 21-399 87-53 172-58 170 85"
          ></path>
          <path
            id="aK"
            fill="#333"
            d="M425-862c217 0 353 210 353 439 0 240-138 457-368 457C191 34 49-155 49-377c0-243 145-485 376-485zm-9 703c111 0 169-142 169-264 0-111-61-246-162-246-123 0-184 93-184 278 0 155 59 232 177 232"
          ></path>
          <g id="u">
            <use transform="scale(.00868)" xlinkHref="#aG"></use>
            <use
              transform="translate(7.083) scale(.00868)"
              xlinkHref="#aH"
            ></use>
            <use
              transform="translate(13.75) scale(.00868)"
              xlinkHref="#az"
            ></use>
            <use
              transform="translate(21.606) scale(.00868)"
              xlinkHref="#aI"
            ></use>
            <use
              transform="translate(24.48) scale(.00868)"
              xlinkHref="#aJ"
            ></use>
            <use
              transform="translate(32.049) scale(.00868)"
              xlinkHref="#az"
            ></use>
            <use
              transform="translate(39.905) scale(.00868)"
              xlinkHref="#ay"
            ></use>
            <use
              transform="translate(45.885) scale(.00868)"
              xlinkHref="#aD"
            ></use>
            <use
              transform="translate(48.88) scale(.00868)"
              xlinkHref="#aK"
            ></use>
            <use
              transform="translate(56.076) scale(.00868)"
              xlinkHref="#aF"
            ></use>
          </g>
          <g id="v">
            <use transform="scale(.00868)" xlinkHref="#aD"></use>
            <use
              transform="translate(2.995) scale(.00868)"
              xlinkHref="#ax"
            ></use>
          </g>
          <path
            id="aL"
            fill="#333"
            d="M693-317c70-2 127 82 85 150C718-70 552 31 404 34 201 38 40-151 44-358c4-212 146-388 302-458 115-51 232-54 316 28 45 43 73 95 84 157-37 55-72 83-106 83-41 12-94-120-135-109-108-10-258 167-258 275 0 142 52 213 157 213 43 0 97-25 163-74s108-74 126-74"
          ></path>
          <path
            id="aM"
            fill="#333"
            d="M476-126c0-66 16-285 16-352 0-127-35-191-105-191-52 0-95 33-128 99v459c-1 97-34 145-99 145C99 34 68-4 68-80c-3-280 4-405 5-720 48-30 87-45 118-45 23 0 40 10 51 29 122-74 282-47 360 57 61-63 131-94 210-94 198 0 297 146 297 437 0 66-17 290-15 356 2 51-43 94-94 94-66 0-99-52-99-155 0-65 14-288 14-353 0-127-35-190-104-190-57 0-102 36-133 109 23 130-10 351-9 490 1 50-44 94-94 94-66 0-99-52-99-155"
          ></path>
          <path
            id="aN"
            fill="#333"
            d="M555-828c4-155-11-330-11-481 0-60 30-90 89-90 48 0 79 26 94 78 7 24 10 70 10 137 0 363-3 845 29 1153-44 35-82 53-114 53-23 0-40-14-53-42-61 36-127 54-196 54C185 34 15-173 15-393c0-266 251-557 540-435zM215-399c0 121 74 239 189 239 65 0 121-23 166-69-7-86-10-208-10-365-47-42-93-63-138-63-109 0-207 146-207 258"
          ></path>
          <g id="w">
            <use transform="scale(.00868)" xlinkHref="#aA"></use>
            <use
              transform="translate(6.753) scale(.00868)"
              xlinkHref="#aG"
            ></use>
            <use
              transform="translate(14.427) scale(.00868)"
              xlinkHref="#aL"
            ></use>
            <use
              transform="translate(21.675) scale(.00868)"
              xlinkHref="#aK"
            ></use>
            <use
              transform="translate(28.872) scale(.00868)"
              xlinkHref="#aM"
            ></use>
            <use
              transform="translate(39.063) scale(.00868)"
              xlinkHref="#aM"
            ></use>
            <use
              transform="translate(49.253) scale(.00868)"
              xlinkHref="#aG"
            ></use>
            <use
              transform="translate(56.927) scale(.00868)"
              xlinkHref="#aF"
            ></use>
            <use
              transform="translate(64.071) scale(.00868)"
              xlinkHref="#aN"
            ></use>
            <use
              transform="translate(71.267) scale(.00868)"
              xlinkHref="#aG"
            ></use>
            <use
              transform="translate(78.941) scale(.00868)"
              xlinkHref="#aN"
            ></use>
          </g>
          <path
            id="aO"
            fill="#3a414a"
            d="M1357-1365c30-1 64 29 63 59 21-105-159 796-241 1134-7 28-10 69-30 119-28 69-82 70-120 12-13-19-33-85-66-196-72-245-182-578-229-818-63 359-133 666-208 924-6 19-11 48-29 80-34 59-90 77-124 13-27-51-34-142-47-213-47-256-137-606-271-1049 27-39 52-59 73-59 8 0 15 6 22 18 11 20 27 60 46 119 93 285 176 601 249 947 94-382 156-647 188-952 8-78 44-179 120-121 32 24 55 82 73 167 48 224 133 529 256 915 69-331 130-620 200-954 7-32 19-154 75-145"
          ></path>
          <path
            id="aP"
            fill="#3a414a"
            d="M433-485c45 49 314 380 318 432 1 29-34 54-63 53-15 0-32-7-48-26-72-87-219-308-294-397-31 21-83 59-158 114-3 127-9 225-19 292C120 6 63 17 65-58c8-306 15-811 5-1251 0-37 19-56 58-56 31 0 50 15 58 46 6 258 11 593 9 862 138-105 296-208 465-357 68 8 106 23 82 61-40 64-145 152-309 268"
          ></path>
          <g id="x">
            <use transform="scale(.01085)" xlinkHref="#aO"></use>
            <use
              transform="translate(15.983) scale(.01085)"
              xlinkHref="#ac"
            ></use>
            <use
              transform="translate(24.164) scale(.01085)"
              xlinkHref="#ab"
            ></use>
            <use
              transform="translate(31.793) scale(.01085)"
              xlinkHref="#aP"
            ></use>
          </g>
          <path
            id="aQ"
            fill="#3a414a"
            d="M84-573c0-36 33-71 71-60 1-135 2-338 2-608-24 3-48 5-72 7-91-120-12-131 224-131 187 0 348 36 481 112 163 92 244 226 244 398 0 140-68 241-201 312-140 75-366 99-568 69v382c-1 61-21 92-60 92-37 0-55-18-55-53-2-124 4-359 5-449-47-10-71-34-71-71zm819-275c0-146-73-253-220-321-109-51-247-77-412-77-4 181-6 394-6 640 149 24 352 10 462-32 116-44 176-112 176-210"
          ></path>
          <g id="y">
            <use transform="scale(.01085)" xlinkHref="#au"></use>
            <use
              transform="translate(9.755) scale(.01085)"
              xlinkHref="#aQ"
            ></use>
            <use
              transform="translate(21.105) scale(.01085)"
              xlinkHref="#au"
            ></use>
          </g>
          <g id="z">
            <use transform="scale(.01085)" xlinkHref="#ac"></use>
            <use
              transform="translate(8.181) scale(.01085)"
              xlinkHref="#ai"
            ></use>
          </g>
          <path
            id="aR"
            fill="#3a414a"
            d="M689-655c-177 0-313 1-513 0v626C147-10 122 0 99 0 81 0 72-10 72-29c1-230-6-996-5-1225 0-46 11-77 34-93 18-12 228-18 629-18 78 0 117 22 117 65 0 82-109 56-180 56-162 0-331 9-491-2v471c219-3 363-5 430-5 90 0 135 24 135 72 0 35-17 53-52 53"
          ></path>
          <path
            id="aS"
            fill="#3a414a"
            d="M550-1306c0 29-13 85-41 168-19 57-118 356-287 901-14 45-32 111-70 194-14 30-37 43-62 43-42 0-63-19-63-56 78-277 132-406 299-959 29-95 53-244 96-308 19-28 39-42 64-42 43 0 64 20 64 59"
          ></path>
          <g id="A">
            <use transform="scale(.01085)" xlinkHref="#T"></use>
            <use
              transform="translate(11.209) scale(.01085)"
              xlinkHref="#aR"
            ></use>
            <use
              transform="translate(20.4) scale(.01085)"
              xlinkHref="#an"
            ></use>
            <use
              transform="translate(25.401) scale(.01085)"
              xlinkHref="#aS"
            ></use>
            <use
              transform="translate(31.662) scale(.01085)"
              xlinkHref="#T"
            ></use>
            <use
              transform="translate(42.871) scale(.01085)"
              xlinkHref="#aR"
            ></use>
            <use
              transform="translate(52.062) scale(.01085)"
              xlinkHref="#aQ"
            ></use>
          </g>
          <path
            id="aT"
            fill="#333"
            d="M55-1294c-14-53 255-105 315-105 180 0 329 25 446 75 163 70 244 183 244 338S940-702 700-601c50 84 169 271 237 374 55 83 80 139 80 166 0 50-49 95-99 93-102-5-209-244-266-337-31-51-76-127-137-229-67 18-133 27-199 27v394c0 98-33 147-98 147-48 0-88-38-88-87 3-451 6-580 5-1131h5c-57-40-85-77-85-110zm812 302c0-86-64-148-193-186-93-27-223-39-355-34-2 104-3 274-3 511 109-9 219-35 329-79 148-59 222-130 222-212"
          ></path>
          <path
            id="aU"
            fill="#333"
            d="M77-29c1-230-6-996-5-1225 0-55 14-94 42-116 25-20 244-29 656-29 100 0 150 33 150 99 0 51-41 91-92 90-202-4-383 3-579 0v401h396c113-3 169 30 169 101 0 48-38 90-85 87-131-7-367-5-480 1v608c-44 31-81 46-111 46-41 0-61-21-61-63"
          ></path>
          <path
            id="aV"
            fill="#333"
            d="M128-1389c67 0 222-10 294-10 59 0 88 28 88 83 0 66-54 99-162 99 10 274 9 651 10 1063 101 1 152 35 152 101 0 58-99 87-297 87-31 0-61-2-92-5-62-80-79-175 62-174-7-143-4-807-16-1062-24-2-54-7-90-15-39-74-50-167 51-167"
          ></path>
          <path
            id="aW"
            fill="#333"
            d="M534-1399c50 0 99 43 97 93-2 85-72 263-100 350-58 184-143 461-258 828C239-20 194 34 138 34 88 34 39-5 41-56c0-21 31-125 92-313 37-116 110-334 208-657 30-101 51-243 99-316 24-38 55-57 94-57"
          ></path>
          <path
            id="aX"
            fill="#333"
            d="M53-1311c-12-48 236-88 295-88 197 0 365 41 505 122 170 98 255 239 255 422 0 338-392 467-770 420-1 250-2 343-2 343 0 84-31 126-92 126-48 0-89-38-89-87 0-112 4-348 5-423-47-19-71-52-71-97 0-51 24-83 71-94 1-236 2-415 2-536l-51 5c-39-43-58-81-58-113zm855 463c0-253-274-365-563-359-5 191-7 382-7 572 37 5 81 7 130 7 293 0 440-73 440-220"
          ></path>
          <g id="B">
            <use transform="scale(.00868)" xlinkHref="#aT"></use>
            <use
              transform="translate(9.644) scale(.00868)"
              xlinkHref="#aU"
            ></use>
            <use
              transform="translate(17.674) scale(.00868)"
              xlinkHref="#aV"
            ></use>
            <use
              transform="translate(22.56) scale(.00868)"
              xlinkHref="#aW"
            ></use>
            <use
              transform="translate(28.394) scale(.00868)"
              xlinkHref="#aT"
            ></use>
            <use
              transform="translate(38.038) scale(.00868)"
              xlinkHref="#aU"
            ></use>
            <use
              transform="translate(46.068) scale(.00868)"
              xlinkHref="#aX"
            ></use>
          </g>
          <path
            id="aY"
            fill="#3a414a"
            d="M471-1365c137 0 236 121 236 262 0 94-108 110-123 28-6-36-13-71-23-104-13-44-58-68-105-50-129 50-191 235-191 546 78-4 155-6 232-6 55 0 82 19 82 58 0 36-104 54-313 54 13 123 29 303 48 541-34 24-63 36-87 36-58 0-43-165-48-203-5-41-41-294-37-362H56C9-638 5-674 137-672c0-186 19-330 56-432 63-174 156-261 278-261"
          ></path>
          <g id="C">
            <use transform="scale(.01085)" xlinkHref="#W"></use>
            <use
              transform="translate(2.485) scale(.01085)"
              xlinkHref="#aY"
            ></use>
          </g>
          <g id="D">
            <use transform="scale(.01085)" xlinkHref="#ah"></use>
            <use
              transform="translate(8.984) scale(.01085)"
              xlinkHref="#ai"
            ></use>
          </g>
          <g id="E">
            <use transform="scale(.01085)" xlinkHref="#ag"></use>
            <use
              transform="translate(7.52) scale(.01085)"
              xlinkHref="#ac"
            ></use>
            <use
              transform="translate(15.701) scale(.01085)"
              xlinkHref="#ae"
            ></use>
            <use
              transform="translate(18.381) scale(.01085)"
              xlinkHref="#ak"
            ></use>
            <use
              transform="translate(27.007) scale(.01085)"
              xlinkHref="#Y"
            ></use>
            <use
              transform="translate(33.637) scale(.01085)"
              xlinkHref="#W"
            ></use>
            <use
              transform="translate(36.122) scale(.01085)"
              xlinkHref="#ac"
            ></use>
            <use
              transform="translate(44.303) scale(.01085)"
              xlinkHref="#ai"
            ></use>
          </g>
          <g id="F">
            <use transform="scale(.01085)" xlinkHref="#X"></use>
            <use
              transform="translate(11.328) scale(.01085)"
              xlinkHref="#W"
            ></use>
            <use
              transform="translate(13.813) scale(.01085)"
              xlinkHref="#ae"
            ></use>
            <use
              transform="translate(16.493) scale(.01085)"
              xlinkHref="#ae"
            ></use>
          </g>
          <g id="G">
            <use transform="scale(.01085)" xlinkHref="#af"></use>
            <use
              transform="translate(11.892) scale(.01085)"
              xlinkHref="#U"
            ></use>
            <use
              transform="translate(20.649) scale(.01085)"
              xlinkHref="#U"
            ></use>
            <use
              transform="translate(29.405) scale(.01085)"
              xlinkHref="#Y"
            ></use>
          </g>
          <path
            id="aZ"
            fill="#3a414a"
            d="M14-370c0-201 178-454 373-454 57 0 110 19 159 58-1-43 17-65 56-65 40 0 60 29 60 87V302c-41 21-72 31-95 31-16 0-24-10-24-31V-49C305 103 14-116 14-370zm128 6c0 131 114 245 245 245 62 0 116-27 163-81v-392c-45-71-97-106-157-106-130 0-251 201-251 334"
          ></path>
          <g id="H">
            <use transform="scale(.01085)" xlinkHref="#ab"></use>
            <use
              transform="translate(7.628) scale(.01085)"
              xlinkHref="#U"
            ></use>
            <use
              transform="translate(16.385) scale(.01085)"
              xlinkHref="#aZ"
            ></use>
            <use
              transform="translate(24.273) scale(.01085)"
              xlinkHref="#ak"
            ></use>
            <use transform="translate(32.9) scale(.01085)" xlinkHref="#W"></use>
            <use
              transform="translate(35.384) scale(.01085)"
              xlinkHref="#ab"
            ></use>
            <use
              transform="translate(43.012) scale(.01085)"
              xlinkHref="#U"
            ></use>
            <use
              transform="translate(51.769) scale(.01085)"
              xlinkHref="#af"
            ></use>
            <use
              transform="translate(63.661) scale(.01085)"
              xlinkHref="#U"
            ></use>
            <use
              transform="translate(72.418) scale(.01085)"
              xlinkHref="#ai"
            ></use>
            <use
              transform="translate(80.534) scale(.01085)"
              xlinkHref="#Y"
            ></use>
            <use
              transform="translate(87.164) scale(.01085)"
              xlinkHref="#ag"
            ></use>
          </g>
          <g id="I">
            <use transform="scale(.01085)" xlinkHref="#au"></use>
            <use
              transform="translate(9.755) scale(.01085)"
              xlinkHref="#ac"
            ></use>
            <use
              transform="translate(17.936) scale(.01085)"
              xlinkHref="#aY"
            ></use>
            <use
              transform="translate(25.749) scale(.01085)"
              xlinkHref="#X"
            ></use>
            <use
              transform="translate(37.077) scale(.01085)"
              xlinkHref="#ah"
            ></use>
            <use
              transform="translate(46.061) scale(.01085)"
              xlinkHref="#ab"
            ></use>
            <use
              transform="translate(53.69) scale(.01085)"
              xlinkHref="#U"
            ></use>
          </g>
          <g id="J">
            <use transform="scale(.01085)" xlinkHref="#aq"></use>
            <use
              transform="translate(10.85) scale(.01085)"
              xlinkHref="#ag"
            ></use>
            <use
              transform="translate(18.37) scale(.01085)"
              xlinkHref="#ag"
            ></use>
            <use
              transform="translate(25.89) scale(.01085)"
              xlinkHref="#U"
            ></use>
            <use
              transform="translate(34.646) scale(.01085)"
              xlinkHref="#Y"
            ></use>
          </g>
          <path
            id="ba"
            fill="#3a414a"
            d="M135-1357c26-2 66 24 54 55 76 178 299 744 437 1089 113-328 232-650 340-982 29-87 49-136 60-146 57-53 114-15 114 90V-29c-40 25-91 53-108-1-16-201-8-717-13-958-56 164-185 507-282 826-22 73-53 150-119 150-19 0-38-14-57-43-11-18-37-84-81-198-64-166-163-416-292-749-3 340 19 663-5 973C138 1 74 29 77-55c8-231-15-894-12-1138 0-85 5-160 70-164"
          ></path>
          <g id="K">
            <use transform="scale(.01085)" xlinkHref="#ba"></use>
            <use
              transform="translate(13.097) scale(.01085)"
              xlinkHref="#ah"
            ></use>
            <use
              transform="translate(22.081) scale(.01085)"
              xlinkHref="#ai"
            ></use>
            <use
              transform="translate(30.197) scale(.01085)"
              xlinkHref="#ah"
            ></use>
            <use
              transform="translate(39.182) scale(.01085)"
              xlinkHref="#aw"
            ></use>
            <use transform="translate(47.7) scale(.01085)" xlinkHref="#U"></use>
            <use
              transform="translate(56.456) scale(.01085)"
              xlinkHref="#af"
            ></use>
            <use
              transform="translate(68.349) scale(.01085)"
              xlinkHref="#U"
            ></use>
            <use
              transform="translate(77.105) scale(.01085)"
              xlinkHref="#ai"
            ></use>
            <use
              transform="translate(85.221) scale(.01085)"
              xlinkHref="#Y"
            ></use>
            <use
              transform="translate(91.851) scale(.01085)"
              xlinkHref="#ap"
            ></use>
          </g>
          <g id="L">
            <use transform="scale(.01085)" xlinkHref="#au"></use>
            <use
              transform="translate(9.755) scale(.01085)"
              xlinkHref="#aQ"
            ></use>
            <use
              transform="translate(21.105) scale(.01085)"
              xlinkHref="#au"
            ></use>
            <use
              transform="translate(29.319) scale(.01085)"
              xlinkHref="#ap"
            ></use>
          </g>
          <g id="M">
            <use transform="scale(.01085)" xlinkHref="#aq"></use>
            <use
              transform="translate(10.85) scale(.01085)"
              xlinkHref="#ab"
            ></use>
            <use
              transform="translate(18.479) scale(.01085)"
              xlinkHref="#ar"
            ></use>
            <use
              transform="translate(26.714) scale(.01085)"
              xlinkHref="#Z"
            ></use>
            <use
              transform="translate(35.384) scale(.01085)"
              xlinkHref="#W"
            ></use>
            <use
              transform="translate(37.869) scale(.01085)"
              xlinkHref="#Y"
            ></use>
            <use
              transform="translate(44.499) scale(.01085)"
              xlinkHref="#U"
            ></use>
            <use
              transform="translate(53.255) scale(.01085)"
              xlinkHref="#ar"
            ></use>
            <use
              transform="translate(61.49) scale(.01085)"
              xlinkHref="#Y"
            ></use>
          </g>
          <use id="N" transform="scale(.00868)" xlinkHref="#az"></use>
          <g id="O">
            <use transform="scale(.00868)" xlinkHref="#ax"></use>
            <use
              transform="translate(6.684) scale(.00868)"
              xlinkHref="#aK"
            ></use>
            <use
              transform="translate(13.88) scale(.00868)"
              xlinkHref="#aI"
            ></use>
            <use
              transform="translate(16.753) scale(.00868)"
              xlinkHref="#aJ"
            ></use>
            <use
              transform="translate(24.323) scale(.00868)"
              xlinkHref="#ay"
            ></use>
            <use
              transform="translate(30.304) scale(.00868)"
              xlinkHref="#aD"
            ></use>
            <use
              transform="translate(33.299) scale(.00868)"
              xlinkHref="#aK"
            ></use>
            <use
              transform="translate(40.495) scale(.00868)"
              xlinkHref="#aF"
            ></use>
          </g>
          <g id="P">
            <use transform="scale(.01085)" xlinkHref="#au"></use>
            <use
              transform="translate(9.755) scale(.01085)"
              xlinkHref="#ak"
            ></use>
            <use
              transform="translate(18.381) scale(.01085)"
              xlinkHref="#ad"
            ></use>
            <use
              transform="translate(26.997) scale(.01085)"
              xlinkHref="#af"
            ></use>
            <use
              transform="translate(38.889) scale(.01085)"
              xlinkHref="#W"
            ></use>
            <use
              transform="translate(41.374) scale(.01085)"
              xlinkHref="#Y"
            ></use>
          </g>
          <use id="Q" transform="scale(.01085)" xlinkHref="#ah"></use>
          <path
            id="bb"
            fill="#3a414a"
            d="M509-1365c210 0 377 134 377 341 0 100-46 213-137 340-8 21-281 327-351 409-40 47-68 94-87 137h517c42 1 63 22 63 65 0 49-199 73-597 73-75 0-113-22-113-67 0-44 20-102 60-174 99-178 337-397 440-558 53-82 78-157 78-223 2-135-111-210-254-210-177 0-246 103-220 268 6 35-31 66-67 66-45 0-68-51-68-152 0-197 158-315 359-315"
          ></path>
          <path
            id="bc"
            fill="#3a414a"
            d="M65-128c-2-220 17-952 15-1172 0-43 204-65 611-65 51 0 88 4 109 10 35 9 53 29 53 58 0 37-18 55-53 55-154-1-470-7-612-9 7 124 10 284 10 481 150 1 312-1 464-3 39 0 58 18 58 54-2 101-163 70-275 70-44 0-127-1-250-1v536c183-8 367-12 553-12 67 0 100 21 100 63 0 40-30 60-90 60-103 0-453 5-557 3C94-2 66-20 65-128"
          ></path>
          <g id="R">
            <use transform="scale(.01085)" xlinkHref="#aQ"></use>
            <use
              transform="translate(11.35) scale(.01085)"
              xlinkHref="#bb"
            ></use>
            <use
              transform="translate(22.222) scale(.01085)"
              xlinkHref="#bc"
            ></use>
          </g>
          <g id="S">
            <use transform="scale(.01085)" xlinkHref="#aQ"></use>
            <use
              transform="translate(11.35) scale(.01085)"
              xlinkHref="#bb"
            ></use>
            <use
              transform="translate(22.222) scale(.01085)"
              xlinkHref="#aq"
            ></use>
          </g>
        </defs>
      </g>
    </svg>